{"asset":{"version":"2.0","generator":"THREE.GLTFExporter"},"scenes":[{"nodes":[0],"name":"AuxScene"}],"scene":0,"nodes":[{"mesh":0}],"bufferViews":[{"buffer":0,"byteOffset":0,"byteLength":20160,"target":34962,"byteStride":12},{"buffer":0,"byteOffset":20160,"byteLength":20160,"target":34962,"byteStride":12}],"buffers":[{"byteLength":40320,"uri":"data:application/octet-stream;base64,"}],"accessors":[{"bufferView":0,"componentType":5126,"count":1680,"max":[77.19999694824219,0.5999979972839355,77.10000610351562],"min":[-90.69999694824219,-63.5,-77.0999984741211],"type":"VEC3"},{"bufferView":1,"componentType":5126,"count":1680,"max":[0.3780541718006134,1,0.8944236040115356],"min":[-0.37794411182403564,0.44722074270248413,-0.8000062108039856],"type":"VEC3"}],"materials":[{"pbrMetallicRoughness":{"baseColorFactor":[0.5019607843137255,0.5019607843137255,0.5019607843137255,1],"metallicFactor":0,"roughnessFactor":1}}],"meshes":[{"primitives":[{"mode":4,"attributes":{"POSITION":0,"NORMAL":1},"material":0}]}]}