{"asset":{"version":"2.0","generator":"THREE.GLTFExporter"},"scenes":[{"nodes":[0],"name":"AuxScene"}],"scene":0,"nodes":[{"mesh":0}],"bufferViews":[{"buffer":0,"byteOffset":0,"byteLength":19188,"target":34962,"byteStride":12},{"buffer":0,"byteOffset":19188,"byteLength":19188,"target":34962,"byteStride":12}],"buffers":[{"byteLength":38376,"uri":"data:application/octet-stream;base64,"}],"accessors":[{"bufferView":0,"componentType":5126,"count":1599,"max":[64.19999694824219,0.4000000059604645,27.70000457763672],"min":[-91.69999694824219,-0.10000000149011612,-42.70000076293945],"type":"VEC3"},{"bufferView":1,"componentType":5126,"count":1599,"max":[0.049120910465717316,1,0.2847987115383148],"min":[-0.2747225761413574,0.9493290185928345,-0.2747211158275604],"type":"VEC3"}],"materials":[{"pbrMetallicRoughness":{"baseColorFactor":[0.5019607843137255,0.5019607843137255,0.5019607843137255,1],"metallicFactor":0,"roughnessFactor":1}}],"meshes":[{"primitives":[{"mode":4,"attributes":{"POSITION":0,"NORMAL":1},"material":0}]}]}