{"asset":{"version":"2.0","generator":"THREE.GLTFExporter"},"scenes":[{"nodes":[0],"name":"AuxScene"}],"scene":0,"nodes":[{"mesh":0}],"bufferViews":[{"buffer":0,"byteOffset":0,"byteLength":18792,"target":34962,"byteStride":12},{"buffer":0,"byteOffset":18792,"byteLength":18792,"target":34962,"byteStride":12}],"buffers":[{"byteLength":37584,"uri":"data:application/octet-stream;base64,"}],"accessors":[{"bufferView":0,"componentType":5126,"count":1566,"max":[77.10000610351562,0.7000049948692322,77.10000610351562],"min":[-89.69999694824219,-63.5,-77.0999984741211],"type":"VEC3"},{"bufferView":1,"componentType":5126,"count":1566,"max":[0.8618454337120056,1,0.7453486919403076],"min":[-0.8618454337120056,0.29819315671920776,-0.7701841592788696],"type":"VEC3"}],"materials":[{"pbrMetallicRoughness":{"baseColorFactor":[0.5019607843137255,0.5019607843137255,0.5019607843137255,1],"metallicFactor":0,"roughnessFactor":1}}],"meshes":[{"primitives":[{"mode":4,"attributes":{"POSITION":0,"NORMAL":1},"material":0}]}]}