{"asset":{"version":"2.0","generator":"THREE.GLTFExporter"},"scenes":[{"nodes":[0],"name":"AuxScene"}],"scene":0,"nodes":[{"mesh":0}],"bufferViews":[{"buffer":0,"byteOffset":0,"byteLength":73584,"target":34962,"byteStride":12},{"buffer":0,"byteOffset":73584,"byteLength":73584,"target":34962,"byteStride":12}],"buffers":[{"byteLength":147168,"uri":"data:application/octet-stream;base64,"}],"accessors":[{"bufferView":0,"componentType":5126,"count":6132,"max":[77.10000610351562,0.5999979972839355,62.90000915527344],"min":[-119.4000015258789,-83.19999694824219,-63.099998474121094],"type":"VEC3"},{"bufferView":1,"componentType":5126,"count":6132,"max":[0.9723218679428101,1,0.9363300204277039],"min":[-0.9591463208198547,0.08333969116210938,-0.8351770043373108],"type":"VEC3"}],"materials":[{"pbrMetallicRoughness":{"baseColorFactor":[0.5019607843137255,0.5019607843137255,0.5019607843137255,1],"metallicFactor":0,"roughnessFactor":1}}],"meshes":[{"primitives":[{"mode":4,"attributes":{"POSITION":0,"NORMAL":1},"material":0}]}]}